<?xml version="1.0" encoding="utf-8"?>
<!-- Generator: Adobe Illustrator 25.2.1, SVG Export Plug-In . SVG Version: 6.00 Build 0)  -->
<svg version="1.1" xmlns="http://www.w3.org/2000/svg" xmlns:xlink="http://www.w3.org/1999/xlink" x="0px" y="0px"
	 viewBox="0 0 1920 1080" style="enable-background:new 0 0 1920 1080;" xml:space="preserve">
<style type="text/css">
	.st0{fill:url(#SVGID_1_);}
	.st1{fill:#FFFFFF;}
	.st2{fill:#7EFCA8;}
	.st3{fill:#59E29D;}
	.st4{fill:url(#SVGID_2_);}
	.st5{fill:url(#SVGID_3_);}
	.st6{fill:url(#SVGID_4_);}
	.st7{fill:url(#SVGID_5_);}
	.st8{fill:url(#SVGID_6_);}
	.st9{fill:url(#SVGID_7_);}
	.st10{fill:url(#SVGID_8_);}
	.st11{fill:#3F7006;}
	.st12{opacity:0.5;}
	.st13{fill:url(#SVGID_9_);}
	.st14{filter:url(#Adobe_OpacityMaskFilter);}
	.st15{mask:url(#SVGID_10_);}
	.st16{fill:url(#SVGID_11_);}
	.st17{fill:url(#SVGID_12_);}
	.st18{fill:#468406;}
	.st19{fill:url(#SVGID_13_);}
	.st20{fill:url(#SVGID_14_);}
	.st21{fill:url(#SVGID_15_);}
	.st22{fill:url(#SVGID_16_);}
	.st23{fill:url(#SVGID_17_);}
	.st24{fill:#8ADB35;}
	.st25{opacity:0.7;}
	.st26{fill:url(#SVGID_18_);}
	.st27{filter:url(#Adobe_OpacityMaskFilter_1_);}
	.st28{mask:url(#SVGID_19_);}
	.st29{fill:#FCFF71;}
	.st30{opacity:0.8;fill-rule:evenodd;clip-rule:evenodd;fill:url(#SVGID_20_);}
	.st31{opacity:0.8;fill-rule:evenodd;clip-rule:evenodd;fill:url(#SVGID_21_);}
	.st32{opacity:0.8;fill-rule:evenodd;clip-rule:evenodd;fill:url(#SVGID_22_);}
	.st33{opacity:0.8;fill-rule:evenodd;clip-rule:evenodd;fill:url(#SVGID_23_);}
</style>
<g id="Warstwa_10">
	<linearGradient id="SVGID_1_" gradientUnits="userSpaceOnUse" x1="1248.9257" y1="458.6432" x2="1248.9257" y2="-22.6852">
		<stop  offset="0" style="stop-color:#FFFFFF"/>
		<stop  offset="1" style="stop-color:#00B3FF"/>
	</linearGradient>
	<rect x="-1014" class="st0" width="4525.9" height="1080"/>
</g>
<g id="Warstwa_12">
	<path class="st1" d="M570.4,476.5c-20.4-38.1-41.8-72.6-85.7-85.8c-86.4-26-171.5,24.4-258.1,9.4c-23.2-4-45.5-12.5-65.3-25.3
		C117,346,79.6,316.4,25.4,310.3c-40.7-4.6-81.1,4-118.1,20.8c-23.4,10.6-45.5,24.9-70.3,32.4c-39.2,11.8-80.7-2.4-119.4,11.8
		c-15.2,5.6-27.7,15-37,27C103.3,485,570.4,476.5,570.4,476.5z"/>
	<path class="st1" d="M1210.2,233.8c-3.4-62.3-58.5-107.8-116.7-122.4c-56.5-14.1-115.9,12.9-162.4,43.3
		c-49.8,32.5-107.2,53-166.2,60.1c-32.4,3.9-65.4,3.9-97.8-0.4c-33-4.3-63.8-16.2-97.5-13.9c-44,2.9-90.4,37.3-96.2,79
		c-1.3,9.4-0.5,19.3,2.9,29.2C845.2,314.1,1144.7,249.2,1210.2,233.8z"/>
	<path class="st1" d="M2389.5,243.4c-4.7-43,27.9-80.2,66-96.7c37-16,80.6-4.2,115.8,11.4c37.7,16.7,79.2,24.2,120.3,22.5
		c22.6-0.9,45.1-4.7,66.8-11.2c22-6.7,41.8-18.2,65-20.5c30.4-3,66,15.4,74.6,43.2c1.9,6.3,2.5,13.1,1.3,20.3
		C2647.9,257.4,2436,246.6,2389.5,243.4z"/>
	<path class="st1" d="M1385.7,354.2c61,10.6,333.5,55.1,599.9,55.1c-10.3-32.3-34.7-74.6-63.4-81.9c-25.8-6.6-47.1,21.8-72.2,7.7
		c-14.7-8.2-23.7-24.3-37.9-33.5c-12.9-8.4-28.9-11.3-44.3-10.6c-81.1,3.5-148.2,61.6-231.3,34.9c-29.4-9.4-55.2-28.1-85.3-35.6
		c-25.7-6.4-52.1-3.8-65.9,21c-2.8,5-4,10.6-4.3,16.2c-0.1,3.4,0.1,6.8,0.7,10.1C1382.3,341,1383.7,347.1,1385.7,354.2z"/>
	<path class="st1" d="M-865.3,198.9c61,10.6,333.5,55.1,599.9,55.1c-10.3-32.3-34.7-74.6-63.4-81.9c-25.8-6.6-47.1,21.8-72.2,7.7
		c-14.7-8.2-23.7-24.3-37.9-33.5c-12.9-8.4-28.9-11.3-44.3-10.6c-81.1,3.5-148.2,61.6-231.3,34.9c-29.4-9.4-55.2-28.1-85.3-35.6
		c-25.7-6.4-52.1-3.8-65.9,21c-2.8,5-4,10.6-4.3,16.2c-0.1,3.4,0.1,6.8,0.7,10.1C-868.6,185.7-867.3,191.8-865.3,198.9z"/>
	<path class="st1" d="M2017.2,114.5c-38.4,3.7-210,19.3-378.3,16.4c6.2-13.3,21.1-30.6,39.1-33.3c16.2-2.5,29.9,9.5,45.7,4
		c9.2-3.3,14.7-9.8,23.5-13.5c8.1-3.4,18.1-4.4,27.9-3.9c51.3,2.3,94.3,27.2,146.5,17c18.4-3.6,34.5-11.1,53.5-13.9
		c16.2-2.4,32.8-1,41.8,9.4c1.8,2.1,2.7,4.4,2.9,6.8c0.1,1.4,0,2.8-0.3,4.2C2019.2,109,2018.4,111.5,2017.2,114.5z"/>
</g>
<g id="Warstwa_11">
	<path class="st2" d="M1398.9,1080c-7.3-29.8-15.5-57.7-24-82.6c-1.1-3.1-2.1-6.3-3.2-9.4C1119.1,259.5,605,630.2,227.8,674.3
		c-131,15.3-262.3-7.2-391.8-42c-121.3-32.5-233.8-71.9-357.2-50C-660.9,607-807.7,690.8-885.7,914.7c-5,14.5-22.8,95.1-39.1,165.3
		H1398.9z"/>
	<path class="st3" d="M1537.1,1080c-30.4-85.1-85.4-189-185-286.2C1130,577,1215,49.4,960.7,369c-154.3,193.9-291.9,500.1-376.3,711
		H1537.1z"/>
	<path class="st3" d="M3511.9,1080c-166.2-402.8-453-729.4-759.1-702.8c-177,15.4-329,167.5-507.7,186.1
		c-97,10.1-191.3-12.9-287.4-29.4c-187.4-32.1-382.2,0-483.7,271.2c-30.4,81.1-49.5,175-57.4,274.9H3511.9z"/>
</g>
<g id="Warstwa_9">
	<linearGradient id="SVGID_2_" gradientUnits="userSpaceOnUse" x1="309.8631" y1="807.9248" x2="309.8631" y2="77.9396">
		<stop  offset="0" style="stop-color:#8BEA4E"/>
		<stop  offset="1" style="stop-color:#7ECB1C"/>
	</linearGradient>
	<path class="st4" d="M1529.6,1005c-84.3-141.2-190.8-253.2-356.1-285.7c-117.9-23.2-239.5-14.4-358.6-1.2
		c-12.7-43.2-32.7-116.6-36.7-163.9c-2.4-28.8-15.1-74.5-30.4-123.6c9.4-43.3,22.1-105,24.1-127.9c3.2-36.7-25.7-107.9-22-150
		c2.9-32.5,15.8-116.1,21.6-152.8h-16.4c-8.3,36.3-25.3,115.7-26.1,159.1c-1,57.5,11.2,112,15.1,139.8c2.5,17.5-9.7,44.2-19,61.4
		c-15.6-48-30.3-93.1-36.8-122.6C675.2,178.3,637.9,49.2,623.5,0h-45.4c9.3,31.3,24.6,87.3,29.3,128.9c6.8,60.9,58.2,245.1,60,348.1
		c1.3,73.4,14.2,193.4,21.6,256.2c-153.3,19.7-307.6,42.8-461.8,38.6c-3.7-38.2,8.6-82,8.6-82c-11.4,16.7-19.6,32-25.4,45.2
		c0.6-102.5,31.8-192.1,31.8-192.1C190,613.5,169.3,699,161.7,742.9c-5.3-14.3-12.6-28.4-21.7-33.6c-20.8-11.9-70-28.6-77.4-25.6
		c-7.4,3-39.7,30-60.5,29.3c-10.2-0.4-32.3-9.6-55.5-17.5c13.5-91.3,34.7-217.9,56-276.6c58.1-39.3,115.4-82.7,153.9-142.1
		c27.6-42.6,54.3-85.3,91.5-120.1c0,0,0,0,0,0c-16.4,78.2-32.4,169.8,26,232.6c15.7,16.9,13.8,42.1,15.8,63.6
		c1.1,12.1,4,35.3,15,42.6c21.8,14.5,23.1-35,23.5-46.2c3.3-93.4,30.1-189,34.1-283.5c1.6-37,14.7-72.8,38-101.3
		c15.6-19.1,27.8-41.8,36.6-64.6h-19.6c-9.4,28.3-33.7,51.7-60,67.1c-33.4,19.6-71.4,30.3-104.5,50.4c-32.9,20-59.6,48.5-82.7,79.2
		c-23.2,30.9-39.7,68.4-72,90.8c-19.3,13.4-42.1,23.1-65.7,27.5C57.9,213.1,86.2,73,100.5,0H49.4C32.6,60.4,1.9,166.2-29.9,252.5
		c-41-51.9-31.1-133.7-45.2-195.3C-79.5,38-84.6,18.9-90.4,0h-20.8c10.3,55.1,25,143.1,22.5,187.1c-2.4,42.3,16.7,98.4,31.1,134
		c-4.8,10.6-9.5,20.3-14.1,28.9c-39.4,73.4-81.2,251.7-104.5,360.7c-93-16.4-186.2-27.6-279.2-19.6c12.8-87.5,25.5-177.9,76.8-247.3
		c64.1-86.7,88.1-197.2,118.1-299.2c14.2-48.2,28.3-96.5,42.4-144.7h-48.6l-114.1,321.6c0,0-84.7,112.5-126.4,172.8
		c-29.8,43.1-102.2,173.7-141,244.5c-87.2,37.2-166,94.4-223.5,169c-33.7,43.7-60,93.3-76.4,148.4c-2.3,7.9-4.6,15.8-6.9,23.7
		h2529.4C1555.8,1045.7,1536.1,1015.9,1529.6,1005z M265.3,198c1.2-19.4,3.1-38.8,5.5-58.2c22.2-13.1,46.4-19.9,70.2-30.6
		c1.1,41.2-14,164.3-15.7,177.8c-2.4,19-3,40.2-12.2,57.2c-0.9,1.6-2,3.4-3.8,3.9c-7,2.2-6.4-22.4-6.2-26.5
		c0.3-9.2,2.4-61.7-10.8-62.2c-8.7-0.3-13.5,22.2-22.2,5.3C261.6,247.8,264.1,216.7,265.3,198z"/>
	<linearGradient id="SVGID_3_" gradientUnits="userSpaceOnUse" x1="1954.2284" y1="1297.2639" x2="1554.4149" y2="265.7453">
		<stop  offset="0" style="stop-color:#8BEA4E"/>
		<stop  offset="1" style="stop-color:#7ECB1C"/>
	</linearGradient>
	<path class="st5" d="M2702.3,742.3c-91.8-54-198.5-66.9-306.3-71.2c15.8-99.4,23.6-207.6,82.9-287.8
		c64.1-86.7,88.1-197.2,118.1-299.2c8.2-28,16.4-56.1,24.6-84.1h-52.3l-92.6,261c0,0-84.7,112.5-126.4,172.8
		c-28.1,40.8-94.3,159.6-134.3,232.3c-21-1-41.7-2.4-62-4.5c-26.6-2.7-52.6-7.1-78.2-12.7c-11.9-117.9,17.7-237.7,43.9-351.5
		c18.2-79,2.4-153-2.8-233.1c-1.4-21.4-2.7-42.9-4-64.3h-52.5c0.2,17.5,0.4,35.1,0.5,52.6c0.3,45.9,5,93.1-5.7,138.2
		c-3.7,15.6-10,29.9-16.5,44.4c-12.2,27.3-25,54.5-34.6,83.1c-22.1,65.9-29.5,136-41.6,204.4c-1.8,10.3-3.8,20.7-5.9,31
		c-12.4-76.2-40.9-116.4-40.9-116.4c24,69.9,29.3,125.3,29.9,156.7c-21.4-43.7-63.4-63-63.4-63c24.5,24.2,34.1,54.2,37.9,73.6
		c-43-13.7-86-27.5-130.2-38.4c6.4-59,15.6-153.6,16.5-213.6c1.5-92.4,45.2-257.8,51-312.5c1.3-12.4,3.6-26.2,6.4-40.2h-40.8
		c-13.1,48.8-27.7,105.1-34.6,137.8c-5.6,26.5-18,67-31.3,110.1c-7.9-15.5-18.3-39.3-16.2-55.1c3.3-24.9,13.7-73.9,12.9-125.5
		c-0.3-17.9-3.5-42.6-7.6-67.3h-17.6c3.4,24.6,6.4,48,7.5,61.6c3.2,37.8-21.4,101.7-18.7,134.7c1.7,20.5,12.6,75.9,20.5,114.8
		c-13,44-23.8,85.1-25.9,110.9c-2.8,35.2-15,86.7-25.3,125.3c-93.5-11.1-184.1-5-271.2,14.9c15-41.6,47.3-64.8,47.3-64.8
		c-43.1,18.7-66.5,43.5-78.9,67.2c-2-83.1,4.2-153.6,4.2-153.6c-17.8,56.5-25.6,110.6-28.9,151c-17.6-62.5-42.4-155.8-54.9-226.8
		C1291.9,263.4,1266.7,109,1249,0h-28.8c11.1,74.8,23,165.6,23.7,212.4c1,70.7,43.5,296.5,60.3,383.3
		c-237,88.5-443.4,275.4-604.4,484.2H2900c-0.6-3.7-1.6-7.5-3-11.4C2849.4,943,2826.3,815.3,2702.3,742.3z"/>
</g>
<g id="Warstwa_5">
	<linearGradient id="SVGID_4_" gradientUnits="userSpaceOnUse" x1="-589.8929" y1="858.0138" x2="-589.8929" y2="858.0138">
		<stop  offset="0" style="stop-color:#7BC614"/>
		<stop  offset="1" style="stop-color:#4E9D04"/>
	</linearGradient>
	<path class="st6" d="M-589.9,858"/>
	<linearGradient id="SVGID_5_" gradientUnits="userSpaceOnUse" x1="2107.7292" y1="1026.2736" x2="2107.7292" y2="657.6021">
		<stop  offset="0" style="stop-color:#7BC614"/>
		<stop  offset="1" style="stop-color:#8ADB35"/>
	</linearGradient>
	<path class="st7" d="M2823.1,1080c-31.4-75.8-70.8-148.8-127.1-208.6c-37.3-39.7-86.2-78.2-139-95.3
		c-72.9-23.7-153.6-32.8-228.3-51.4c-70-17.5-142.1-46.3-213.7-54.1c-83.2-9.1-168.6,0.1-248.5,19
		c-247.4,58.5-406.8,277.7-474.2,390.4H2823.1z"/>
	<g>
		<linearGradient id="SVGID_6_" gradientUnits="userSpaceOnUse" x1="257.3177" y1="595.8366" x2="257.3177" y2="1021.5547">
			<stop  offset="0" style="stop-color:#7BC614"/>
			<stop  offset="1" style="stop-color:#8ADB35"/>
		</linearGradient>
		<path class="st8" d="M1528.7,1080c-58.3-95.8-135.6-186.8-234.1-266.5c-81.7-66.1-176.7-124-296.4-156.5
			c-104-28.2-219.5-39.8-330.9-27.3c-118.2,13.3-233,39.6-350.8,54.8c-87.8,11.4-177.9,18.3-267.4,14.2
			c-61.5-2.8-122.4-10.4-183.8-14.1c-59-3.6-119.1-5.7-178.2-2.2c-174.9,10.3-330.6,75.8-456.3,153.3
			c-109,67.2-196.8,151-244.9,244.3H1528.7z"/>
		<linearGradient id="SVGID_7_" gradientUnits="userSpaceOnUse" x1="257.3177" y1="284.1786" x2="257.3177" y2="1347.9255">
			<stop  offset="0" style="stop-color:#468406"/>
			<stop  offset="1" style="stop-color:#8ADB35"/>
		</linearGradient>
		<path class="st9" d="M931.3,765.4c-137.2-44.6-282-136.9-435.9-54.9c-29.8,15.9-53.5,36.8-86.2,49.8
			c-34.6,13.8-76.4,17.4-116.8,17.8C170.1,779,52.6,752.6-68.3,745c-117.4-7.4-244-5.5-359.3,11.4c-128.7,18.9-255.6,51.8-370,97.7
			C-893.4,917.9-970.2,995-1014,1080h2542.7c-56.7-93.1-131.4-181.7-226-259.9c-32.8-2.6-65.2-5.2-97.1-8
			C1112.3,804,1016.5,793,931.3,765.4z"/>
	</g>
</g>
<g id="Warstwa_3">
	<linearGradient id="SVGID_8_" gradientUnits="userSpaceOnUse" x1="1339.163" y1="743.5995" x2="1339.163" y2="1113.8379">
		<stop  offset="0" style="stop-color:#7BC614"/>
		<stop  offset="1" style="stop-color:#357C06"/>
	</linearGradient>
	<path class="st10" d="M2569.2,1080c-47.7-131-180.4-228.3-308.1-276.4c-72.3-27.2-150.5-36.8-227.6-36.3
		c-79,0.5-148.3,18.2-225.1,34.6c-158.4,33.7-314.3,47.3-476.1,41c-160.9-6.2-318.8-44-481.4-43.4
		c-187.8,0.7-374.8,42.3-538.8,132.8c-58.6,32.3-113.9,70.3-164.5,114c-12.9,11.1-25.7,22.4-38.4,33.8H2569.2z"/>
	<path class="st11" d="M2528.1,1001.2c-83-15.2-172,14.4-252.1-22.7c-75.1-34.7-87.1-137.2-181.5-140.2
		c-154.1-4.9-301.9,60-451.8,86.1c-154.1,26.8-312.9,27.9-467.4,2.9c-157-25.5-315.8-80.8-477-62.3
		c-152.6,17.5-301.9,57.6-441.5,120.6c-30.2,13.6-60.7,28.4-90.3,44.9c-6.4,5.2-12.7,10.5-18.9,15.9c-12.9,11.1-25.7,22.4-38.4,33.8
		h2460C2559,1052.2,2545,1025.8,2528.1,1001.2z"/>
</g>
<g id="Warstwa_14">
	<g class="st12">
		
			<linearGradient id="SVGID_9_" gradientUnits="userSpaceOnUse" x1="1953.2648" y1="-60.6188" x2="1953.2648" y2="892.7645" gradientTransform="matrix(1 0 0 1 -1576.433 0)">
			<stop  offset="0" style="stop-color:#9B9E64"/>
			<stop  offset="1" style="stop-color:#121212"/>
		</linearGradient>
		<path class="st13" d="M223.9,86.2L563.1,1016c4.2,11.6-4.3,23.8-16.7,23.8H406.2c-8.4,0-15.6-5.8-17.4-14L189.8,96
			c-1.7-8,2.2-16,9.5-19.6l0,0C208.8,71.7,220.3,76.3,223.9,86.2z"/>
		<defs>
			<filter id="Adobe_OpacityMaskFilter" filterUnits="userSpaceOnUse" x="170.2" y="46.3" width="271.7" height="809.3">
				<feColorMatrix  type="matrix" values="1 0 0 0 0  0 1 0 0 0  0 0 1 0 0  0 0 0 1 0"/>
			</filter>
		</defs>
		<mask maskUnits="userSpaceOnUse" x="170.2" y="46.3" width="271.7" height="809.3" id="SVGID_10_">
			<g class="st14">
				
					<image style="overflow:visible;" width="271.6" height="809.1" xlink:href="B2B7961D.png"  transform="matrix(1 0 0 1 170.2444 46.3222)"/>
			</g>
		</mask>
		<g class="st15">
			<g>
				
					<image style="overflow:visible;" width="1132" height="3372" xlink:href="C4D72713.png"  transform="matrix(0.24 0 0 0.24 170.16 46.32)">
				</image>
			</g>
		</g>
	</g>
</g>
<g id="Warstwa_2">
	<linearGradient id="SVGID_11_" gradientUnits="userSpaceOnUse" x1="245.0714" y1="869.7894" x2="245.0714" y2="989.0785">
		<stop  offset="0" style="stop-color:#7BC614"/>
		<stop  offset="1" style="stop-color:#4E9D04"/>
	</linearGradient>
	<path class="st16" d="M1057.8,1080c-16.7-33.4-43.7-79.1-81.2-117.2c-21.6-21.8-49.9-35.3-79.3-44c-102.6-30.2-212.9-22-318.6-18.1
		c-91.6,3.3-183.1,1.1-274.5-3.6c-131.2-6.8-259.2-34.2-389.2-53.2c-116-16.9-243.5-34.7-349.1,28.7
		c-74.5,44.7-124.3,122.5-133.5,207.4H1057.8z"/>
	<linearGradient id="SVGID_12_" gradientUnits="userSpaceOnUse" x1="1523.8617" y1="808.4971" x2="1523.8617" y2="962.568">
		<stop  offset="0" style="stop-color:#7BC614"/>
		<stop  offset="1" style="stop-color:#4E9D04"/>
	</linearGradient>
	<path class="st17" d="M1950.3,1080c-1.3-2.7-2.6-5.4-3.9-8.1c-2.9-5.9-5.9-11.9-9-17.7c-70.7-133.9-190.1-263.1-346.7-295.1
		c-72.9-14.9-132.9,9-191,52.5c-48.2,36-92.2,78.3-146.9,104.9c-45.8,22.3-98.3,40.7-126.2,85.7c-14.7,23.8-24.2,50.5-29.3,77.8
		H1950.3z"/>
	<path class="st18" d="M1126.7,1002.2c-14.7,23.8-24.2,50.5-29.3,77.8h852.9c-1.3-2.7-2.6-5.4-3.9-8.1c-2.9-5.9-5.9-11.9-9-17.7
		c-18.1-34.2-39.3-68.2-63.6-100.2c-8.7,0.8-17.6,2.6-27.4,4.8c-17.8,4.1-36.7,4.3-54.6,0.7c-13.9-2.8-27.1-8.1-40.5-12.6
		c-34.7-11.6-67.6-9.2-102.6,0c-28.9,7.5-83.5,32.8-109,7.4c-8.5-8.4-11.2-22.1-23.1-27c-20.2-8.2-44.8,3.2-64.5,7.9
		c-23.5,5.6-47.2,10.5-71.1,14.6c-35.8,6.2-72.2,12.8-108.5,10.1c-20.2-1.5-39.6-8.6-59.8-8.6c-16.8,0-33.3,4.7-48.5,11.9
		C1149.4,973.7,1136.5,986.3,1126.7,1002.2z"/>
	<linearGradient id="SVGID_13_" gradientUnits="userSpaceOnUse" x1="1189.8208" y1="918.9995" x2="1628.0206" y2="918.9995">
		<stop  offset="0" style="stop-color:#7BC614"/>
		<stop  offset="1" style="stop-color:#AFBF14"/>
	</linearGradient>
	<path class="st19" d="M1189.8,1080h186c23.5-32.8,51.5-62.5,83.4-87.7c53.2-42.2,144.1-54.1,165.2-126.9
		c9.2-31.9-0.2-63.9-15.4-92.5c-2-3.7-4.1-7.4-6.3-11.1c-4-1-8-1.9-12-2.7c-1.9-0.4-3.7-0.7-5.5-1c10.9,15.6,18.2,33.2,21.3,52
		c16.3,98.2-155.1,109-218.3,124.3c-45.4,11-91.3,25.7-129.5,53C1225.6,1011,1202.7,1043.2,1189.8,1080z"/>
	<linearGradient id="SVGID_14_" gradientUnits="userSpaceOnUse" x1="1642.8114" y1="926.8417" x2="1784.1735" y2="926.8417">
		<stop  offset="0" style="stop-color:#7BC614"/>
		<stop  offset="1" style="stop-color:#AFBF14"/>
	</linearGradient>
	<path class="st20" d="M1668.7,1080h103.5c20.1-73.6,28-193.1-83.9-286.8c-14.7-7.4-29.9-13.9-45.4-19.5
		C1683,816,1776.2,938.7,1668.7,1080z"/>
	<path class="st18" d="M-567.6,1080h1625.4c-14.9-29.9-38.1-69.6-69.7-104.9c-17.5-8.5-36-15-55.1-19.3
		c-93-21-188.9,14.8-275.8,43.7c-47.4,15.8-88.9,23.7-137.1,4.9c-32.9-12.9-60.7-34.6-92.7-48.9c-62.9-28.2-126.2-19.2-191.7-9.3
		C173,955.6,109.2,969,45.4,961.8c-62.3-7-112.1-47.5-175.2-48.6c-60.5-1-110.4,21.5-170.6-2.6c-40.9-16.4-73.1-43.5-116.8-47.4
		c-5.7,2.9-11.3,6-16.9,9.4C-508.6,917.3-558.4,995.1-567.6,1080z"/>
	<linearGradient id="SVGID_15_" gradientUnits="userSpaceOnUse" x1="-469.9001" y1="985.5231" x2="305.2116" y2="985.5231">
		<stop  offset="0" style="stop-color:#7BC614"/>
		<stop  offset="1" style="stop-color:#AFBF14"/>
	</linearGradient>
	<path class="st21" d="M20.5,934.3c145,8.6,233.4-13.8,284.7-37.1c-0.4,0-0.7,0-1.1-0.1c-18.6-1-37.2-2.4-55.7-4.1
		c-29.8,6.1-60.3,8.3-90.9,8.9c-158,3.2-322-33.6-476.6,12.4c-56.7,16.9-116.4,47.3-140.7,103.3c-8.3,19.1-11.9,41.3-9.2,62.3h191
		C-277.4,1010.2-231.7,919.3,20.5,934.3z"/>
	<linearGradient id="SVGID_16_" gradientUnits="userSpaceOnUse" x1="93.052" y1="989.9925" x2="472.8372" y2="989.9925">
		<stop  offset="0" style="stop-color:#7BC614"/>
		<stop  offset="1" style="stop-color:#AFBF14"/>
	</linearGradient>
	<path class="st22" d="M472.8,1080c-4.1-32.3-17.7-114-56.7-178.6c-15.8-0.4-31.6-0.9-47.5-1.4c-8.1,47.2-53.5,138.1-275.6,180
		H472.8z"/>
	<linearGradient id="SVGID_17_" gradientUnits="userSpaceOnUse" x1="529.5571" y1="990.3547" x2="808.8062" y2="990.3547">
		<stop  offset="0" style="stop-color:#7BC614"/>
		<stop  offset="1" style="stop-color:#AFBF14"/>
	</linearGradient>
	<path class="st23" d="M808.8,1080c-3.6-63.5-43.9-152-230.8-179.3c-16.2,0.6-32.3,1-48.5,1.2c99.2,18.7,251.4,66.3,193.3,178H808.8
		z"/>
	<path class="st24" d="M1946.7,1072.1l-3.8-7.8c-2.6-5.2-5.1-10.4-7.8-15.6l-4.1-7.7l-4.2-7.6c-2.8-5.1-5.7-10.1-8.6-15.2
		c-11.7-20.1-24.4-39.6-38-58.5c-13.7-18.9-28.3-37.1-44-54.4c-15.7-17.3-32.3-33.9-50.1-49.3c-17.7-15.4-36.5-29.7-56.3-42.5
		c-19.8-12.8-40.7-24-62.5-33.5l-4.1-1.8c-1.4-0.6-2.8-1.1-4.1-1.7l-8.3-3.3c-2.7-1.1-5.6-2-8.4-3c-2.8-1-5.6-2-8.4-2.9
		c-11.3-3.6-22.7-7-34.4-9.5c-2.9-0.6-5.8-1.3-8.7-2l-8.8-1.5l-4.4-0.8l-4.5-0.5l-8.9-1l-9-0.4l-4.5-0.2l-4.5,0.1c-3,0.1-6,0-9,0.2
		l-9,0.7c-11.9,1.3-23.8,3.3-35.3,6.7l-4.3,1.2l-4.3,1.4c-2.8,1-5.7,1.9-8.5,2.9c-5.5,2.2-11.1,4.3-16.5,6.9
		c-21.7,9.8-41.7,22.7-60.7,36.8c-18.8,14.1-36.9,29.1-55.1,43.7c-18.2,14.6-36.6,29-56.1,41.7c-9.7,6.4-19.8,12.3-30.1,17.7
		c-10.3,5.4-21,10.3-31.6,15.3c-21.2,10.1-42.6,20.4-61.8,34.3c-9.5,7-18.5,14.8-26.1,23.8c-1,1.1-1.9,2.3-2.8,3.4l-2.7,3.5
		l-1.4,1.7l-1.2,1.8l-2.4,3.7c-3.3,4.9-6,10-8.7,15.2c-10.7,20.7-17.5,43.2-21.4,65.9c2.3-11.3,5.3-22.5,9.2-33.4
		c3.8-10.9,8.4-21.5,13.9-31.7c2.8-5.1,5.6-10.1,9-14.8l2.5-3.5l1.2-1.8l1.4-1.7l2.7-3.3c0.9-1.1,1.8-2.3,2.8-3.3
		c7.7-8.6,16.6-16.1,26.1-22.8c19-13.4,40.3-23.4,61.7-33.1c10.7-4.9,21.4-9.6,32-15c10.6-5.3,20.8-11.2,30.8-17.6
		c9.9-6.4,19.7-13,29.1-20c9.5-7,18.7-14.2,27.9-21.5c18.4-14.5,36.5-29.3,55.2-43.2c18.8-13.7,38.4-26.4,59.6-35.9
		c5.2-2.5,10.7-4.5,16-6.7c2.7-1,5.5-1.9,8.2-2.8l4.1-1.4l4.2-1.1c11.1-3.3,22.6-5.2,34.1-6.4l8.7-0.7c2.9-0.1,5.8-0.1,8.7-0.2
		l4.3-0.1l4.3,0.2l8.7,0.4l8.6,0.9l4.3,0.5l4.3,0.7l8.6,1.5c2.9,0.6,5.7,1.3,8.5,1.9c11.4,2.5,22.6,5.8,33.8,9.3
		c2.8,0.9,5.5,1.9,8.3,2.9c2.7,1,5.5,1.9,8.2,3l8.1,3.2c1.4,0.5,2.7,1,4.1,1.6l4,1.7c21.4,9.2,42.1,20.1,61.8,32.6
		c19.6,12.5,38.4,26.4,56.2,41.4c17.8,15,34.5,31.2,50.3,48.3c4,4.2,7.8,8.6,11.7,12.9c3.8,4.4,7.6,8.8,11.3,13.2
		c7.4,9,14.6,18.1,21.5,27.4c14,18.5,27.1,37.7,39.2,57.5c12.1,19.8,23.3,40.1,33.7,60.8L1946.7,1072.1z"/>
	<path class="st24" d="M877,913.1c-6.8-1.6-13.6-3.3-20.5-4.8l-10.3-2c-3.4-0.6-6.9-1.4-10.4-1.9l-10.4-1.6
		c-3.5-0.5-6.9-1.1-10.4-1.5c-27.9-3.7-55.9-5.4-84-6.1c-56.2-1.2-112.3,2-168.3,3.4c-28,0.7-56,0.8-84.1,0.7
		c-28-0.2-56-0.8-84.1-1.7c-28-0.9-56-2.1-84-3.5c-28-1.5-55.8-3.7-83.7-6.6c-55.7-5.8-111-14.5-166.4-23.5
		c-55.3-8.9-110.7-18.3-166.3-25.7c-27.8-3.8-55.7-7.3-83.7-9.5c-28-2.2-56.2-3.3-84.3-1.9c-28.1,1.5-56.1,5.4-83.3,12.8
		c-13.6,3.7-26.9,8.2-39.7,13.7c-12.9,5.5-25.3,12-37.2,19.2c24.1-14,50.4-24.4,77.4-31.2c27.1-6.8,55-10.2,82.9-11.1
		c27.9-1,55.9,0.3,83.8,2.8c27.9,2.5,55.6,6.3,83.3,10.4c27.7,4.1,55.4,8.5,83.1,13l82.9,13.9c27.7,4.6,55.4,9,83.1,13.1
		c27.8,4.1,55.6,7.8,83.6,10.8c27.9,2.9,56,5.1,84.1,6.5c28,1.4,56.1,2.6,84.2,3.3c56.1,1.5,112.3,1.8,168.5-0.2
		c56.1-2.1,112.1-5.8,168.1-5.3c28,0.2,56,1.4,83.9,4.6c3.5,0.3,7,0.8,10.4,1.3l10.4,1.4c3.5,0.4,6.9,1.1,10.4,1.7l10.3,1.8
		c6.9,1.3,13.7,2.9,20.6,4.3c6.8,1.7,13.6,3.5,20.4,5.2C890.5,916.9,883.8,915,877,913.1z"/>
	<g>
		<path class="st18" d="M287.6,937.9c-2.8,5.4-6.8,10.1-11.8,13.7c-5.3,3.9-3.9-2.5-2.7-5.5c1.4-3.4,3.4-6.6,5.9-9.3
			c1.7-1.8,3.5-3.9,5.8-4.9c4.3-1.9,4.6,2.2,3.1,5.3C287.9,937.3,287.7,937.6,287.6,937.9z"/>
		<path class="st18" d="M275.5,931.9c-0.6,3.7-2.2,7.3-4.4,10.4c-2.4,3.3-2.8-0.8-2.7-2.8c0.2-2.3,0.8-4.6,1.8-6.7
			c0.7-1.4,1.4-3,2.6-4c2.2-2,3.2,0.5,2.9,2.6C275.6,931.6,275.5,931.7,275.5,931.9z"/>
	</g>
	<g>
		<path class="st18" d="M192.8,940.1c5.5,6.5,9.4,14.2,11.3,22.4c2.1,8.8-5.4,3.5-8.7,0.3c-3.7-3.7-6.7-8-8.9-12.7
			c-1.4-3.1-3.1-6.6-3.2-10.1c-0.1-6.4,5.5-4.5,8.6-0.9C192.2,939.4,192.5,939.8,192.8,940.1z"/>
		<path class="st18" d="M178.2,951.8c4.5,2.9,8.4,6.8,11.1,11.4c2.9,4.9-2.6,3.1-5.2,1.8c-2.9-1.5-5.6-3.5-7.8-6
			c-1.4-1.6-3.1-3.4-3.8-5.5c-1.3-3.8,2.5-3.7,5-2.1C177.8,951.6,178,951.7,178.2,951.8z"/>
	</g>
	<g>
		<path class="st18" d="M-342.4,878.8c-4.6,9.8-11.5,18.6-20.1,25.3c-9.2,7.3-7.2-4.1-5.2-9.7c2.3-6.2,5.6-12.1,9.9-17.1
			c2.9-3.3,6.1-7.2,10.1-9.3c7.5-3.8,8.4,3.7,5.9,9.2C-342,877.9-342.2,878.4-342.4,878.8z"/>
		<path class="st18" d="M-364.5,869.1c-0.9,6.7-3.3,13.3-7.2,18.9c-4.1,6.1-5.1-1.2-5-4.8c0.2-4.2,1-8.3,2.7-12.1
			c1.1-2.5,2.3-5.5,4.3-7.4c3.8-3.6,5.7,0.7,5.3,4.5C-364.4,868.4-364.5,868.7-364.5,869.1z"/>
	</g>
	<g>
		<path class="st24" d="M-161.7,858.1c1.6,3.1,2.5,6.6,2.5,10.2c0,3.8-2.6,0.9-3.6-0.7c-1.1-1.8-2-3.9-2.4-6c-0.3-1.4-0.6-3-0.3-4.4
			c0.6-2.6,2.7-1.3,3.6,0.4C-161.8,857.8-161.8,857.9-161.7,858.1z"/>
		<path class="st24" d="M-168.7,861.6c1.6,1.6,2.8,3.5,3.4,5.7c0.7,2.3-1.4,1-2.3,0.2c-1-0.9-1.9-1.9-2.6-3.1c-0.4-0.8-1-1.7-1-2.6
			c-0.2-1.7,1.4-1.3,2.2-0.4C-168.9,861.4-168.8,861.5-168.7,861.6z"/>
	</g>
	<g>
		<path class="st24" d="M-33.8,844.3c-0.3,6.6-2.1,13.2-5.4,19c-3.5,6.2-5.1-0.7-5.3-4.3c-0.2-4.1,0.3-8.1,1.6-12
			c0.8-2.5,1.7-5.5,3.6-7.6c3.4-3.8,5.6,0.2,5.6,3.9C-33.7,843.6-33.8,844-33.8,844.3z"/>
		<path class="st24" d="M-48.7,843.7c1.1,4,1.2,8.3,0.4,12.4c-0.9,4.4-3.2,0.5-4-1.6c-0.9-2.4-1.4-5-1.4-7.5c0-1.7,0-3.6,0.7-5.2
			c1.3-2.9,3.4-0.9,4.1,1.3C-48.8,843.3-48.7,843.5-48.7,843.7z"/>
	</g>
	<g>
		<path class="st18" d="M1702.6,940.1c-2.8,5.4-6.8,10.1-11.8,13.7c-5.3,3.9-3.9-2.5-2.7-5.5c1.4-3.4,3.4-6.6,5.9-9.3
			c1.7-1.8,3.5-3.9,5.8-4.9c4.3-1.9,4.6,2.2,3.1,5.3C1702.9,939.6,1702.7,939.8,1702.6,940.1z"/>
		<path class="st18" d="M1690.5,934.2c-0.6,3.7-2.2,7.3-4.4,10.4c-2.4,3.3-2.8-0.8-2.7-2.8c0.2-2.3,0.8-4.6,1.8-6.7
			c0.7-1.4,1.4-3,2.6-4c2.2-2,3.2,0.5,2.9,2.6C1690.6,933.8,1690.6,934,1690.5,934.2z"/>
	</g>
	<g>
		<path class="st24" d="M1514.8,825.7c1.6,3.1,2.5,6.6,2.5,10.2c0,3.8-2.6,0.9-3.6-0.7c-1.1-1.8-2-3.9-2.4-6c-0.3-1.4-0.6-3-0.3-4.4
			c0.6-2.6,2.7-1.3,3.6,0.4C1514.6,825.4,1514.7,825.5,1514.8,825.7z"/>
		<path class="st24" d="M1507.7,829.2c1.6,1.6,2.8,3.5,3.4,5.7c0.7,2.3-1.4,1-2.3,0.2c-1-0.9-1.9-1.9-2.6-3.1c-0.4-0.8-1-1.7-1-2.6
			c-0.2-1.7,1.4-1.3,2.2-0.4C1507.6,829,1507.6,829.1,1507.7,829.2z"/>
	</g>
	<g>
		<path class="st24" d="M1451.8,860c-0.3,6.6-2.1,13.2-5.4,19c-3.5,6.2-5.1-0.7-5.3-4.3c-0.2-4.1,0.3-8.1,1.6-12
			c0.8-2.5,1.7-5.5,3.6-7.6c3.4-3.8,5.6,0.2,5.6,3.9C1451.8,859.3,1451.8,859.6,1451.8,860z"/>
		<path class="st24" d="M1436.9,859.4c1.1,4,1.2,8.3,0.4,12.4c-0.9,4.4-3.2,0.5-4-1.6c-0.9-2.4-1.4-5-1.4-7.5c0-1.7,0-3.6,0.7-5.2
			c1.3-2.9,3.4-0.9,4.1,1.3C1436.8,859,1436.8,859.2,1436.9,859.4z"/>
	</g>
</g>
<g id="Warstwa_13">
	<g class="st25">
		
			<linearGradient id="SVGID_18_" gradientUnits="userSpaceOnUse" x1="589.6343" y1="-81.7245" x2="589.6343" y2="821.3206" gradientTransform="matrix(-1 0 0 1 1920 0)">
			<stop  offset="0" style="stop-color:#9B9E64"/>
			<stop  offset="1" style="stop-color:#121212"/>
		</linearGradient>
		<path class="st26" d="M1475.3,57.4L1153.9,938c-4,11,4.1,22.6,15.8,22.6h132.9c7.9,0,14.8-5.5,16.4-13.3l188.5-880.7
			c1.6-7.5-2.1-15.2-9-18.6l0,0C1489.5,43.6,1478.7,48,1475.3,57.4z"/>
		<defs>
			<filter id="Adobe_OpacityMaskFilter_1_" filterUnits="userSpaceOnUse" x="1268.6" y="19.4" width="257.5" height="766.6">
				<feColorMatrix  type="matrix" values="1 0 0 0 0  0 1 0 0 0  0 0 1 0 0  0 0 0 1 0"/>
			</filter>
		</defs>
		<mask maskUnits="userSpaceOnUse" x="1268.6" y="19.4" width="257.5" height="766.6" id="SVGID_19_">
			<g class="st27">
				
					<image style="overflow:visible;" width="257.2" height="766.4" xlink:href="B2B7961F.png"  transform="matrix(1 0 0 1 1268.8231 19.5701)"/>
			</g>
		</mask>
		<g class="st28">
			<g>
				
					<image style="overflow:visible;" width="1073" height="3194" xlink:href="C4D72711.png"  transform="matrix(0.24 0 0 0.24 1268.64 19.44)">
				</image>
			</g>
		</g>
	</g>
</g>
<g id="Warstwa_15">
	<circle class="st29" cx="1584.6" cy="571.1" r="5.1"/>
	<circle class="st29" cx="1339.8" cy="302.9" r="5.1"/>
	<circle class="st29" cx="1021.5" cy="608.5" r="5.1"/>
	<circle class="st29" cx="1899.5" cy="812.8" r="5.1"/>
	<circle class="st29" cx="2053.4" cy="501.3" r="5.1"/>
	<circle class="st29" cx="1607.2" cy="396.5" r="5.1"/>
	<circle class="st29" cx="1568" cy="295.6" r="3.6"/>
	<circle class="st29" cx="1814.7" cy="361.9" r="3.6"/>
	<circle class="st29" cx="1887.7" cy="60.2" r="3.6"/>
	<circle class="st29" cx="1316.5" cy="582.1" r="3.6"/>
	<circle class="st29" cx="1724" cy="566" r="3.6"/>
	<circle class="st29" cx="219.4" cy="535.5" r="5.1"/>
	<circle class="st29" cx="-25.4" cy="267.2" r="5.1"/>
	<circle class="st29" cx="-343.7" cy="572.8" r="5.1"/>
	<circle class="st29" cx="534.3" cy="777.2" r="5.1"/>
	<circle class="st29" cx="688.2" cy="465.6" r="5.1"/>
	<circle class="st29" cx="242" cy="360.9" r="5.1"/>
	<circle class="st29" cx="202.8" cy="260" r="3.6"/>
	<circle class="st29" cx="449.5" cy="326.3" r="3.6"/>
	<circle class="st29" cx="522.5" cy="24.6" r="3.6"/>
	<circle class="st29" cx="-48.7" cy="546.5" r="3.6"/>
	<circle class="st29" cx="358.8" cy="530.4" r="3.6"/>
	
		<radialGradient id="SVGID_20_" cx="804.2562" cy="598.299" r="0.7766" gradientTransform="matrix(-29.5716 0 0 -29.5716 24635.3574 18506.5254)" gradientUnits="userSpaceOnUse">
		<stop  offset="2.234640e-02" style="stop-color:#E3FF15"/>
		<stop  offset="0.1464" style="stop-color:#DFFB15"/>
		<stop  offset="0.2693" style="stop-color:#D5EF14"/>
		<stop  offset="0.3918" style="stop-color:#C3DB12"/>
		<stop  offset="0.5142" style="stop-color:#AABF10"/>
		<stop  offset="0.6364" style="stop-color:#8A9B0D"/>
		<stop  offset="0.7587" style="stop-color:#636F09"/>
		<stop  offset="0.8794" style="stop-color:#353B05"/>
		<stop  offset="1" style="stop-color:#000000"/>
	</radialGradient>
	<circle class="st30" cx="852.2" cy="813.9" r="23"/>
	
		<radialGradient id="SVGID_21_" cx="761.5253" cy="602.4315" r="0.7766" gradientTransform="matrix(-29.5716 0 0 -29.5716 24635.3574 18506.5254)" gradientUnits="userSpaceOnUse">
		<stop  offset="2.234640e-02" style="stop-color:#E3FF15"/>
		<stop  offset="0.1464" style="stop-color:#DFFB15"/>
		<stop  offset="0.2693" style="stop-color:#D5EF14"/>
		<stop  offset="0.3918" style="stop-color:#C3DB12"/>
		<stop  offset="0.5142" style="stop-color:#AABF10"/>
		<stop  offset="0.6364" style="stop-color:#8A9B0D"/>
		<stop  offset="0.7587" style="stop-color:#636F09"/>
		<stop  offset="0.8794" style="stop-color:#353B05"/>
		<stop  offset="1" style="stop-color:#000000"/>
	</radialGradient>
	<circle class="st31" cx="2115.9" cy="691.7" r="23"/>
	
		<radialGradient id="SVGID_22_" cx="804.2562" cy="598.299" r="0.7766" gradientTransform="matrix(-29.5716 0 0 -29.5716 24635.3574 18506.5254)" gradientUnits="userSpaceOnUse">
		<stop  offset="2.234640e-02" style="stop-color:#E3FF15"/>
		<stop  offset="0.1464" style="stop-color:#DFFB15"/>
		<stop  offset="0.2693" style="stop-color:#D5EF14"/>
		<stop  offset="0.3918" style="stop-color:#C3DB12"/>
		<stop  offset="0.5142" style="stop-color:#AABF10"/>
		<stop  offset="0.6364" style="stop-color:#8A9B0D"/>
		<stop  offset="0.7587" style="stop-color:#636F09"/>
		<stop  offset="0.8794" style="stop-color:#353B05"/>
		<stop  offset="1" style="stop-color:#000000"/>
	</radialGradient>
	<circle class="st32" cx="852.2" cy="813.9" r="23"/>
	
		<radialGradient id="SVGID_23_" cx="804.2562" cy="598.299" r="0.7766" gradientTransform="matrix(-29.5716 0 0 -29.5716 24635.3574 18506.5254)" gradientUnits="userSpaceOnUse">
		<stop  offset="2.234640e-02" style="stop-color:#E3FF15"/>
		<stop  offset="0.1464" style="stop-color:#DFFB15"/>
		<stop  offset="0.2693" style="stop-color:#D5EF14"/>
		<stop  offset="0.3918" style="stop-color:#C3DB12"/>
		<stop  offset="0.5142" style="stop-color:#AABF10"/>
		<stop  offset="0.6364" style="stop-color:#8A9B0D"/>
		<stop  offset="0.7587" style="stop-color:#636F09"/>
		<stop  offset="0.8794" style="stop-color:#353B05"/>
		<stop  offset="1" style="stop-color:#000000"/>
	</radialGradient>
	<circle class="st33" cx="852.2" cy="813.9" r="23"/>
</g>
</svg>
