<?xml version="1.0" encoding="utf-8"?>
<!-- Generator: Adobe Illustrator 25.2.1, SVG Export Plug-In . SVG Version: 6.00 Build 0)  -->
<svg version="1.1" id="Warstwa_4" xmlns="http://www.w3.org/2000/svg" xmlns:xlink="http://www.w3.org/1999/xlink" x="0px" y="0px"
	 viewBox="0 0 1000 1000" style="enable-background:new 0 0 1000 1000;" xml:space="preserve">
<style type="text/css">
	.st0{fill:#142D07;}
	.st1{fill:#6AD318;}
	.st2{fill:#B0FF64;}
	.st3{fill:#2B600F;}
	.st4{fill:url(#SVGID_1_);}
	.st5{fill:url(#SVGID_2_);}
	.st6{fill:#FFFFFF;}
	.st7{fill:url(#SVGID_3_);}
	.st8{fill:url(#SVGID_4_);}
	.st9{opacity:0.3;fill:url(#SVGID_5_);}
	.st10{opacity:0.5;fill:url(#SVGID_6_);}
	.st11{opacity:0.5;fill:url(#SVGID_7_);}
	.st12{fill:url(#SVGID_8_);}
	.st13{fill:url(#SVGID_9_);}
	.st14{fill:url(#SVGID_10_);}
	.st15{fill:url(#SVGID_11_);}
	.st16{opacity:0.3;fill:url(#SVGID_12_);}
	.st17{opacity:0.5;fill:url(#SVGID_13_);}
	.st18{opacity:0.5;fill:url(#SVGID_14_);}
</style>
<g>
	<g>
		<rect x="0" class="st0" width="1000" height="1000"/>
		<path class="st1" d="M825,25H175H25v150v650v150h150h650h150V825V175V25H825z M825,825l-75,75H175v-75l-75-75V175h75l75-75h575v75
			l75,75v575H825z"/>
		<path class="st2" d="M49.4,950.6c-4-8.6-0.3-28.2-0.4-37.5c-0.4-33-1-65.9-1.7-98.9c-2.3-107.3-4.3-214.7-1.4-322
			c2.2-85.2,15.8-172.6,14.5-259c-0.6-41.2-9-81.1-11.5-122c-1.3-21.3-9.5-65,18.4-72.7c26.5-7.3,60.9,0.1,88.2,0.9
			c36.4,1,72.9,1.5,109.3,1.4c85.2,0,170.3-7.7,255.5-8.5c86.8-0.8,169.9,18.9,255.7,26.6c58.1,5.3,118.4,0.4,176-7.8l14.1,5.3
			l9-31.6H825H175H25v150v650v150l30.4-11.3L49.4,950.6z"/>
		<path class="st3" d="M825,975h150V825V175V25l-23.1,26.3c0,0-7.1,107.6,5,164.1c15.4,72.1,8,151.2,5.6,224.4
			c-2.4,75.4-6.8,150.7-10.4,226.1c-2.5,53.7-3.6,107.6-0.2,161.3c1.4,22.2,23.6,107.4-5.2,120.2c-5.8,2.6-12.5,2.4-18.8,2.1
			c-76.1-3.1-152.2-8-228.4-4.8c-138.6,5.8-276.1,22.4-414.7,5.8c-109.4-13.1-235.4,0-235.4,0L25,975h150H825z"/>
		<path class="st3" d="M159,162.3c-26-2.7-59-12.7-59-12.7V175h75l75-75h575l17.5-17.5c0,0-4.7-2.4-22.4,1.2
			c-17.6,3.5-204.7-9.4-297.6,0s-248.2-30.6-288.2,0S185,165,159,162.3z"/>
		<path class="st2" d="M900,839v-14h-75l-75,75H175l15.6,15.6c0,0,123.7-6.9,243.7,0s202.4,15.6,249.4,0s69.4,15.6,90.6-3.4
			s41.2-69.7,61.2-73.2C855.4,835.5,900,839,900,839z"/>
		<path class="st2" d="M105.3,815.3c17.1,5.6,48.4,65.9,18.4,64.1c-17.1-1-44.7-30.4-48.5-46.3c-3.4-14.2,9.6-20.3,21.8-19.5
			C99.9,813.9,102.7,814.5,105.3,815.3z"/>
		<path class="st2" d="M78.2,877.8c10.1-1.9,42.4,19.9,26.8,27.2c-8.9,4.2-30.8-3.1-37.1-10c-5.6-6.2-0.7-12.8,5.6-15.8
			C75.2,878.6,76.7,878.1,78.2,877.8z"/>
		<radialGradient id="SVGID_1_" cx="512.353" cy="506.4824" r="488.5599" gradientUnits="userSpaceOnUse">
			<stop  offset="0" style="stop-color:#142D07"/>
			<stop  offset="1" style="stop-color:#20490D"/>
		</radialGradient>
		<path class="st4" d="M799.9,353.7c-10.3,1.2-20.4,3.3-29.2,4.8c-93.8,15.5-188.2,57.7-249.7,132.3c-29.6,35.9-51,78.8-85.3,110.2
			c-39,35.7-92.4,53.6-145.2,55c-24.5,0.7-50.1-2-73.8,5.6c-28,8.9-26.2,32-11.5,54.2c34.1,51.7,96.1,78.3,157,89.9
			c108.3,20.5,224.4,0.7,318-57.6s163-155.2,184.7-263.3c5.5-27.5,8.1-56,3.4-83.6C862.1,363.6,837,349.2,799.9,353.7z"/>
		<radialGradient id="SVGID_2_" cx="377.3529" cy="321.1883" r="470.4398" gradientUnits="userSpaceOnUse">
			<stop  offset="0" style="stop-color:#142D07"/>
			<stop  offset="1" style="stop-color:#20490D"/>
		</radialGradient>
		<path class="st5" d="M282.5,217.8c0,0-101.2,48.2-68.2,170.6S363.7,566,375.4,494.3c11.8-71.8-51.8-110.6-5.9-191.8
			S326.8,181.2,282.5,217.8z"/>
		<g>
			<path class="st2" d="M204,710.7c0-5.9,0.3-12,1.1-18.6c3.7-63.7,33.7-170.7,74.6-266.4c28.5-66.7,86.7-184.6,155.9-224.1
				c29.2-16.7,58.5-18.3,84.7-4.7c52.6,27.2,111.2,105.3,174.4,232.2c47.1,94.6,80.4,184.2,84.9,196.5c6.4,13.6,12.6,28.5,15.4,45.3
				c0.4,2.3,0.6,4.4,0.7,6.1c0,0,0.1,1.6,0.1,1.7c0.1,1.3,0.1,2.4,0.1,3.5c0,0,0,1.1,0,1.4c0,1.7-0.1,3.3-0.2,4.3
				c-0.5,6.2-1.9,11.9-4.2,17.1c1.4,6.8,2.1,13,2.1,18.9c0,21.4-9.8,33-18,39c-27.8,20.2-74.5,5.2-139.2-15.6
				c-39.2-12.6-83.6-26.9-123.8-32.4c-53.5-7.3-116.3,29-166.7,58.1C295.5,802,259,823,229.7,806.1c-16.9-9.7-25-29.1-25-59.1
				c0-3.6,0.1-7.5,0.3-11.5c0.1-2.1,0.3-4.3,0.5-6.6c-0.7-3.7-1.1-7.8-1.4-12.3c0,0,0-0.3,0-0.4C204,714.4,204,712.6,204,710.7z"/>
			<path class="st0" d="M340.1,762.7c52-30,116.6-67.4,174.1-59.6c41.2,5.6,86.2,20.1,125.8,32.9c61.4,19.8,105.7,34.1,128.8,17.3
				c8.8-6.4,13.3-16.4,13.3-29.6c0-6-0.9-12.7-2.8-20.4c0.2-0.3,0.3-0.6,0.5-0.9c2.5-4.5,3.9-9.8,4.4-15.7c0.1-0.9,0.2-2,0.2-3.3
				c0-0.2,0-1.3,0-1.3c0-0.9,0-1.8-0.1-2.7c0-0.1-0.1-1.5-0.1-1.5c-0.1-1.5-0.3-3.3-0.6-5.1c-2.6-16.2-8.9-30.5-14.6-42.7
				c-7.6-20.7-133.3-360.4-253.9-422.8c-22.9-11.8-47.7-10.3-73.6,4.5c-66.3,37.8-123,153.2-151,218.6
				c-40.5,94.8-70.1,200.3-73.7,262.8c-0.7,6.3-1,12.1-1,17.6c0,1.7,0,3.4,0.1,5c0,0.1,0,0.1,0,0.2c0.3,4.7,0.7,8.7,1.5,12.4
				c-0.2,2.8-0.4,5.4-0.6,7.8c-0.2,3.8-0.3,7.4-0.3,10.8c0,0,0,0,0,0c0,25.6,6.3,41.6,19.2,49.1C259,809.6,293.1,789.9,340.1,762.7z
				"/>
			<path class="st3" d="M758.1,677.2c0,0-129.4-355.3-248.5-416.9S236.5,591,228.3,736.8s152-63.7,287.5-45.2
				C651.4,710.1,817.2,819.2,758.1,677.2z"/>
			<path class="st1" d="M758.1,634.5c0,0-129.4-355.3-248.5-416.9S236.5,548.3,228.3,694.1s152-63.7,287.5-45.2
				C651.4,667.4,817.2,776.5,758.1,634.5z"/>
			<path class="st6" d="M228.3,694.1c0.1,7,0.3,14.1,1.3,21c1,6.9,2.5,13.8,6.1,19.3c1.8,2.7,4,5,6.7,6.5c2.7,1.5,5.8,2.1,8.9,2.2
				c6.4,0.1,13-1.9,19.3-4.3c12.7-5,24.9-11.9,36.9-19l36.1-21.7c12.1-7.3,24.3-14.5,36.9-21.1c12.6-6.7,25.4-13,38.7-18.5
				c6.6-2.8,13.4-5.3,20.3-7.5c6.9-2.3,13.8-4.3,21-5.9c14.2-3.3,28.9-5,43.8-4.4l5.6,0.3l5.6,0.6c1.9,0.2,3.6,0.5,5.4,0.7
				c1.8,0.3,3.6,0.5,5.3,0.8c7.1,1.2,14.1,2.5,21.1,4.1c14,3.1,27.7,6.7,41.3,10.8c13.6,4.1,27.1,8.4,40.5,12.9l20,6.7l20,6.8
				c13.3,4.5,26.6,8.7,40,12.4c6.7,1.8,13.4,3.4,20.2,4.5c6.7,1.1,13.5,1.7,20,1c3.2-0.4,6.3-1.1,9-2.4c2.7-1.3,5-3.3,6.6-5.8
				c1.6-2.5,2.6-5.6,3.1-8.9c0.5-3.2,0.6-6.6,0.3-10c-0.4-6.8-1.9-13.7-3.7-20.5c-1.7-6.8-4-13.5-6.2-20.1
				c6,12.7,11.6,25.8,13.9,40.2c0.3,1.8,0.4,3.6,0.6,5.4c0.1,0.9,0,1.8,0,2.8c0,0.9,0,1.9-0.1,2.8c-0.3,3.7-1.1,7.6-3,11.2
				c-1.9,3.6-5,6.6-8.4,8.6c-3.5,2-7.3,3.2-11,3.9c-7.5,1.3-14.9,0.9-22.1,0.2c-7.2-0.8-14.3-2.1-21.3-3.5c-14-3-27.6-6.9-41.2-10.8
				l-20.3-6L625,683c-13.4-4.1-26.9-8.1-40.4-11.8c-13.5-3.7-27-7.2-40.6-10c-6.8-1.4-13.6-2.7-20.4-3.8c-1.7-0.3-3.4-0.6-5.1-0.8
				c-1.7-0.2-3.4-0.5-5.1-0.7l-4.9-0.5l-5-0.3c-6.7-0.3-13.4,0-20,0.6c-6.7,0.6-13.4,1.9-20,3.3c-6.6,1.4-13.2,3.2-19.8,5.3
				c-6.5,2-13,4.4-19.4,6.9c-12.9,5-25.5,10.8-38,17c-6.2,3.1-12.4,6.4-18.6,9.6c-6.2,3.3-12.4,6.6-18.5,10
				c-12.3,6.7-24.6,13.7-37.2,20.2c-6.3,3.3-12.6,6.5-19.1,9.4c-6.5,3-13.1,5.8-20,8c-7,2.1-14.3,3.8-22,3.2
				c-3.8-0.4-7.8-1.5-11.1-3.7c-3.4-2.2-5.9-5.3-7.6-8.7c-3.5-6.8-4.4-14.1-4.8-21.1C227.1,708.2,227.5,701.1,228.3,694.1z"/>
			<radialGradient id="SVGID_3_" cx="511.8672" cy="457.892" r="237.8751" gradientUnits="userSpaceOnUse">
				<stop  offset="0" style="stop-color:#6AD318;stop-opacity:0"/>
				<stop  offset="1" style="stop-color:#96FF3B"/>
			</radialGradient>
			<path class="st7" d="M611.5,496.5c37.9,14.7,88.8,51,80.1,84.4c-9.6,36.9-88.2,30.5-115.7,24.5c-30.9-6.7-62.1-19-93.9-20.1
				c-31.6-1.1-61.3,12.6-92.5,15.5c-8.8,0.8-17.9-3.6-22.7-11.1C336,541.4,436.9,524.8,463,523c21-1.4,43.1-2.9,62.6-11.3
				c20.8-9,36-23.8,60.6-21.8C593.1,490.5,601.9,492.8,611.5,496.5z"/>
			<path class="st6" d="M663.7,493.5c0,0-60.9-77.4-97.2-58.2c-36.3,19.2-21.2,91.7,25.3,82.2c46.6-9.6,34.2,34.9,65.7,23.3
				S669.8,500.8,663.7,493.5z"/>
			<path class="st6" d="M701.3,599.6c0,0-10.3-18.5-39.7-19.9c-29.4-1.4-38.3,52-12.3,58.2S723.4,616.2,701.3,599.6z"/>
			
				<radialGradient id="SVGID_4_" cx="564.3071" cy="6.1113" r="272.6735" gradientTransform="matrix(0 1 -1 0 479.6828 67.4005)" gradientUnits="userSpaceOnUse">
				<stop  offset="0" style="stop-color:#6AD318"/>
				<stop  offset="1" style="stop-color:#459300"/>
			</radialGradient>
			<path class="st8" d="M483.4,328.7c-24.2,12.2-46,33.3-65.9,51.4c-22.4,20.3-43.4,42.3-61.6,66.4
				c-33.8,44.9-59.4,100.1-63.4,156.7c-0.4,6-0.6,12-0.6,18c1,176.6,73.9-72.9,145.8-143.8c32.8-32.3,63.8-76.3,74.8-121.7
				c1.8-7.6,5.6-20.1-0.1-26.9C505.9,321,495,322.9,483.4,328.7z"/>
		</g>
		
			<radialGradient id="SVGID_5_" cx="409.2104" cy="502.8673" r="417.4135" gradientTransform="matrix(0.789 -0.6144 0.6144 0.789 -143.5519 388.0586)" gradientUnits="userSpaceOnUse">
			<stop  offset="0" style="stop-color:#6AD318;stop-opacity:0"/>
			<stop  offset="1" style="stop-color:#96FF3B"/>
		</radialGradient>
		<path class="st9" d="M667.9,479.5c68.3-20.5,178-25.1,201.9,30.4c26.5,61.5-89.2,137.2-133.9,158.7c-50,24-106.4,40.7-151.7,73.4
			c-44.9,32.5-71.4,83.6-111.3,121.2c-11.3,10.6-28.7,14.4-43.3,9.1c-94.7-33.8,27.1-165.4,61.4-196c27.5-24.6,56.6-50.5,74.5-83.2
			c19.1-34.9,24.2-71.7,60.4-95.6C635.8,491,650.5,484.7,667.9,479.5z"/>
		<radialGradient id="SVGID_6_" cx="299.8411" cy="95.9746" r="345.9958" gradientUnits="userSpaceOnUse">
			<stop  offset="0" style="stop-color:#6AD318;stop-opacity:0"/>
			<stop  offset="1" style="stop-color:#96FF3B"/>
		</radialGradient>
		<path class="st10" d="M156.9,344.2c-1.4-28.5,12.7-63.2,34-86c50.6-54.3,127.2-79.9,197.8-95.2c76.6-16.6,109.6,10.3,57.1,75.8
			c-47.6,59.3-140,143.4-217.9,153.8C178.4,399.3,158.4,375.4,156.9,344.2z"/>
		<radialGradient id="SVGID_7_" cx="770.147" cy="189.8648" r="247.1848" gradientUnits="userSpaceOnUse">
			<stop  offset="0" style="stop-color:#6AD318;stop-opacity:0"/>
			<stop  offset="1" style="stop-color:#96FF3B"/>
		</radialGradient>
		<path class="st11" d="M656,162.9c13-6,31.7-6,46.2-0.5c34.7,13.2,61,43.8,81.4,73.6c22.1,32.3,15.9,52.7-24.3,40.8
			c-36.5-10.8-92.8-37.7-112.4-71.8C634.6,183.3,641.8,169.5,656,162.9z"/>
		<path class="st3" d="M894.8,86.9c0,0-17.9,6.2-13.2,17.5c4.7,11.4,24.6,6.2,25.5-8.8S894.8,86.9,894.8,86.9z"/>
		<path class="st3" d="M912.2,148.6c-0.5-1.6-1.1-3.1-1.9-4.5c-4.5,18.9-24.7,39.1-41.5,24.8c-6.3-5.4-12.9-14.7-16.3-24.4
			c-3.3,14.4,7.7,33.6,18.1,42.5c19.1,16.3,42.7-12.3,42.4-32.6C913.1,152.4,912.8,150.4,912.2,148.6z"/>
	</g>
	<g>
		<rect x="0" class="st0" width="1000" height="1000"/>
		<path class="st1" d="M825,25H175H25v150v650v150h150h650h150V825V175V25H825z M825,825l-75,75H175v-75l-75-75V175h75l75-75h575v75
			l75,75v575H825z"/>
		<path class="st2" d="M49.4,950.6c-4-8.6-0.3-28.2-0.4-37.5c-0.4-33-1-65.9-1.7-98.9c-2.3-107.3-4.3-214.7-1.4-322
			c2.2-85.2,15.8-172.6,14.5-259c-0.6-41.2-9-81.1-11.5-122c-1.3-21.3-9.5-65,18.4-72.7c26.5-7.3,60.9,0.1,88.2,0.9
			c36.4,1,72.9,1.5,109.3,1.4c85.2,0,170.3-7.7,255.5-8.5c86.8-0.8,169.9,18.9,255.7,26.6c58.1,5.3,118.4,0.4,176-7.8l14.1,5.3
			l9-31.6H825H175H25v150v650v150l30.4-11.3L49.4,950.6z"/>
		<path class="st3" d="M825,975h150V825V175V25l-23.1,26.3c0,0-7.1,107.6,5,164.1c15.4,72.1,8,151.2,5.6,224.4
			c-2.4,75.4-6.8,150.7-10.4,226.1c-2.5,53.7-3.6,107.6-0.2,161.3c1.4,22.2,23.6,107.4-5.2,120.2c-5.8,2.6-12.5,2.4-18.8,2.1
			c-76.1-3.1-152.2-8-228.4-4.8c-138.6,5.8-276.1,22.4-414.7,5.8c-109.4-13.1-235.4,0-235.4,0L25,975h150H825z"/>
		<path class="st3" d="M159,162.3c-26-2.7-59-12.7-59-12.7V175h75l75-75h575l17.5-17.5c0,0-4.7-2.4-22.4,1.2
			c-17.6,3.5-204.7-9.4-297.6,0s-248.2-30.6-288.2,0S185,165,159,162.3z"/>
		<path class="st2" d="M900,839v-14h-75l-75,75H175l15.6,15.6c0,0,123.7-6.9,243.7,0s202.4,15.6,249.4,0s69.4,15.6,90.6-3.4
			s41.2-69.7,61.2-73.2C855.4,835.5,900,839,900,839z"/>
		<path class="st2" d="M105.3,815.3c17.1,5.6,48.4,65.9,18.4,64.1c-17.1-1-44.7-30.4-48.5-46.3c-3.4-14.2,9.6-20.3,21.8-19.5
			C99.9,813.9,102.7,814.5,105.3,815.3z"/>
		<path class="st2" d="M78.2,877.8c10.1-1.9,42.4,19.9,26.8,27.2c-8.9,4.2-30.8-3.1-37.1-10c-5.6-6.2-0.7-12.8,5.6-15.8
			C75.2,878.6,76.7,878.1,78.2,877.8z"/>
		<radialGradient id="SVGID_8_" cx="512.353" cy="506.4824" r="488.5599" gradientUnits="userSpaceOnUse">
			<stop  offset="0" style="stop-color:#142D07"/>
			<stop  offset="1" style="stop-color:#20490D"/>
		</radialGradient>
		<path class="st12" d="M799.9,353.7c-10.3,1.2-20.4,3.3-29.2,4.8c-93.8,15.5-188.2,57.7-249.7,132.3c-29.6,35.9-51,78.8-85.3,110.2
			c-39,35.7-92.4,53.6-145.2,55c-24.5,0.7-50.1-2-73.8,5.6c-28,8.9-26.2,32-11.5,54.2c34.1,51.7,96.1,78.3,157,89.9
			c108.3,20.5,224.4,0.7,318-57.6s163-155.2,184.7-263.3c5.5-27.5,8.1-56,3.4-83.6C862.1,363.6,837,349.2,799.9,353.7z"/>
		<radialGradient id="SVGID_9_" cx="377.3529" cy="321.1883" r="470.4398" gradientUnits="userSpaceOnUse">
			<stop  offset="0" style="stop-color:#142D07"/>
			<stop  offset="1" style="stop-color:#20490D"/>
		</radialGradient>
		<path class="st13" d="M282.5,217.8c0,0-101.2,48.2-68.2,170.6S363.7,566,375.4,494.3c11.8-71.8-51.8-110.6-5.9-191.8
			S326.8,181.2,282.5,217.8z"/>
		<g>
			<path class="st2" d="M204,710.7c0-5.9,0.3-12,1.1-18.6c3.7-63.7,33.7-170.7,74.6-266.4c28.5-66.7,86.7-184.6,155.9-224.1
				c29.2-16.7,58.5-18.3,84.7-4.7c52.6,27.2,111.2,105.3,174.4,232.2c47.1,94.6,80.4,184.2,84.9,196.5c6.4,13.6,12.6,28.5,15.4,45.3
				c0.4,2.3,0.6,4.4,0.7,6.1c0,0,0.1,1.6,0.1,1.7c0.1,1.3,0.1,2.4,0.1,3.5c0,0,0,1.1,0,1.4c0,1.7-0.1,3.3-0.2,4.3
				c-0.5,6.2-1.9,11.9-4.2,17.1c1.4,6.8,2.1,13,2.1,18.9c0,21.4-9.8,33-18,39c-27.8,20.2-74.5,5.2-139.2-15.6
				c-39.2-12.6-83.6-26.9-123.8-32.4c-53.5-7.3-116.3,29-166.7,58.1C295.5,802,259,823,229.7,806.1c-16.9-9.7-25-29.1-25-59.1
				c0-3.6,0.1-7.5,0.3-11.5c0.1-2.1,0.3-4.3,0.5-6.6c-0.7-3.7-1.1-7.8-1.4-12.3c0,0,0-0.3,0-0.4C204,714.4,204,712.6,204,710.7z"/>
			<path class="st0" d="M340.1,762.7c52-30,116.6-67.4,174.1-59.6c41.2,5.6,86.2,20.1,125.8,32.9c61.4,19.8,105.7,34.1,128.8,17.3
				c8.8-6.4,13.3-16.4,13.3-29.6c0-6-0.9-12.7-2.8-20.4c0.2-0.3,0.3-0.6,0.5-0.9c2.5-4.5,3.9-9.8,4.4-15.7c0.1-0.9,0.2-2,0.2-3.3
				c0-0.2,0-1.3,0-1.3c0-0.9,0-1.8-0.1-2.7c0-0.1-0.1-1.5-0.1-1.5c-0.1-1.5-0.3-3.3-0.6-5.1c-2.6-16.2-8.9-30.5-14.6-42.7
				c-7.6-20.7-133.3-360.4-253.9-422.8c-22.9-11.8-47.7-10.3-73.6,4.5c-66.3,37.8-123,153.2-151,218.6
				c-40.5,94.8-70.1,200.3-73.7,262.8c-0.7,6.3-1,12.1-1,17.6c0,1.7,0,3.4,0.1,5c0,0.1,0,0.1,0,0.2c0.3,4.7,0.7,8.7,1.5,12.4
				c-0.2,2.8-0.4,5.4-0.6,7.8c-0.2,3.8-0.3,7.4-0.3,10.8c0,0,0,0,0,0c0,25.6,6.3,41.6,19.2,49.1C259,809.6,293.1,789.9,340.1,762.7z
				"/>
			<path class="st3" d="M758.1,677.2c0,0-129.4-355.3-248.5-416.9S236.5,591,228.3,736.8s152-63.7,287.5-45.2
				C651.4,710.1,817.2,819.2,758.1,677.2z"/>
			<path class="st1" d="M758.1,634.5c0,0-129.4-355.3-248.5-416.9S236.5,548.3,228.3,694.1s152-63.7,287.5-45.2
				C651.4,667.4,817.2,776.5,758.1,634.5z"/>
			<path class="st6" d="M228.3,694.1c0.1,7,0.3,14.1,1.3,21c1,6.9,2.5,13.8,6.1,19.3c1.8,2.7,4,5,6.7,6.5c2.7,1.5,5.8,2.1,8.9,2.2
				c6.4,0.1,13-1.9,19.3-4.3c12.7-5,24.9-11.9,36.9-19l36.1-21.7c12.1-7.3,24.3-14.5,36.9-21.1c12.6-6.7,25.4-13,38.7-18.5
				c6.6-2.8,13.4-5.3,20.3-7.5c6.9-2.3,13.8-4.3,21-5.9c14.2-3.3,28.9-5,43.8-4.4l5.6,0.3l5.6,0.6c1.9,0.2,3.6,0.5,5.4,0.7
				c1.8,0.3,3.6,0.5,5.3,0.8c7.1,1.2,14.1,2.5,21.1,4.1c14,3.1,27.7,6.7,41.3,10.8c13.6,4.1,27.1,8.4,40.5,12.9l20,6.7l20,6.8
				c13.3,4.5,26.6,8.7,40,12.4c6.7,1.8,13.4,3.4,20.2,4.5c6.7,1.1,13.5,1.7,20,1c3.2-0.4,6.3-1.1,9-2.4c2.7-1.3,5-3.3,6.6-5.8
				c1.6-2.5,2.6-5.6,3.1-8.9c0.5-3.2,0.6-6.6,0.3-10c-0.4-6.8-1.9-13.7-3.7-20.5c-1.7-6.8-4-13.5-6.2-20.1
				c6,12.7,11.6,25.8,13.9,40.2c0.3,1.8,0.4,3.6,0.6,5.4c0.1,0.9,0,1.8,0,2.8c0,0.9,0,1.9-0.1,2.8c-0.3,3.7-1.1,7.6-3,11.2
				c-1.9,3.6-5,6.6-8.4,8.6c-3.5,2-7.3,3.2-11,3.9c-7.5,1.3-14.9,0.9-22.1,0.2c-7.2-0.8-14.3-2.1-21.3-3.5c-14-3-27.6-6.9-41.2-10.8
				l-20.3-6L625,683c-13.4-4.1-26.9-8.1-40.4-11.8c-13.5-3.7-27-7.2-40.6-10c-6.8-1.4-13.6-2.7-20.4-3.8c-1.7-0.3-3.4-0.6-5.1-0.8
				c-1.7-0.2-3.4-0.5-5.1-0.7l-4.9-0.5l-5-0.3c-6.7-0.3-13.4,0-20,0.6c-6.7,0.6-13.4,1.9-20,3.3c-6.6,1.4-13.2,3.2-19.8,5.3
				c-6.5,2-13,4.4-19.4,6.9c-12.9,5-25.5,10.8-38,17c-6.2,3.1-12.4,6.4-18.6,9.6c-6.2,3.3-12.4,6.6-18.5,10
				c-12.3,6.7-24.6,13.7-37.2,20.2c-6.3,3.3-12.6,6.5-19.1,9.4c-6.5,3-13.1,5.8-20,8c-7,2.1-14.3,3.8-22,3.2
				c-3.8-0.4-7.8-1.5-11.1-3.7c-3.4-2.2-5.9-5.3-7.6-8.7c-3.5-6.8-4.4-14.1-4.8-21.1C227.1,708.2,227.5,701.1,228.3,694.1z"/>
			<radialGradient id="SVGID_10_" cx="511.8672" cy="457.892" r="237.8751" gradientUnits="userSpaceOnUse">
				<stop  offset="0" style="stop-color:#6AD318;stop-opacity:0"/>
				<stop  offset="1" style="stop-color:#96FF3B"/>
			</radialGradient>
			<path class="st14" d="M611.5,496.5c37.9,14.7,88.8,51,80.1,84.4c-9.6,36.9-88.2,30.5-115.7,24.5c-30.9-6.7-62.1-19-93.9-20.1
				c-31.6-1.1-61.3,12.6-92.5,15.5c-8.8,0.8-17.9-3.6-22.7-11.1C336,541.4,436.9,524.8,463,523c21-1.4,43.1-2.9,62.6-11.3
				c20.8-9,36-23.8,60.6-21.8C593.1,490.5,601.9,492.8,611.5,496.5z"/>
			<path class="st6" d="M663.7,493.5c0,0-60.9-77.4-97.2-58.2c-36.3,19.2-21.2,91.7,25.3,82.2c46.6-9.6,34.2,34.9,65.7,23.3
				S669.8,500.8,663.7,493.5z"/>
			<path class="st6" d="M701.3,599.6c0,0-10.3-18.5-39.7-19.9c-29.4-1.4-38.3,52-12.3,58.2S723.4,616.2,701.3,599.6z"/>
			
				<radialGradient id="SVGID_11_" cx="564.3071" cy="6.1113" r="272.6735" gradientTransform="matrix(0 1 -1 0 479.6828 67.4005)" gradientUnits="userSpaceOnUse">
				<stop  offset="0" style="stop-color:#6AD318"/>
				<stop  offset="1" style="stop-color:#459300"/>
			</radialGradient>
			<path class="st15" d="M483.4,328.7c-24.2,12.2-46,33.3-65.9,51.4c-22.4,20.3-43.4,42.3-61.6,66.4
				c-33.8,44.9-59.4,100.1-63.4,156.7c-0.4,6-0.6,12-0.6,18c1,176.6,73.9-72.9,145.8-143.8c32.8-32.3,63.8-76.3,74.8-121.7
				c1.8-7.6,5.6-20.1-0.1-26.9C505.9,321,495,322.9,483.4,328.7z"/>
		</g>
		
			<radialGradient id="SVGID_12_" cx="409.2104" cy="502.8673" r="417.4135" gradientTransform="matrix(0.789 -0.6144 0.6144 0.789 -143.5519 388.0586)" gradientUnits="userSpaceOnUse">
			<stop  offset="0" style="stop-color:#6AD318;stop-opacity:0"/>
			<stop  offset="1" style="stop-color:#96FF3B"/>
		</radialGradient>
		<path class="st16" d="M667.9,479.5c68.3-20.5,178-25.1,201.9,30.4c26.5,61.5-89.2,137.2-133.9,158.7c-50,24-106.4,40.7-151.7,73.4
			c-44.9,32.5-71.4,83.6-111.3,121.2c-11.3,10.6-28.7,14.4-43.3,9.1c-94.7-33.8,27.1-165.4,61.4-196c27.5-24.6,56.6-50.5,74.5-83.2
			c19.1-34.9,24.2-71.7,60.4-95.6C635.8,491,650.5,484.7,667.9,479.5z"/>
		<radialGradient id="SVGID_13_" cx="299.8411" cy="95.9746" r="345.9958" gradientUnits="userSpaceOnUse">
			<stop  offset="0" style="stop-color:#6AD318;stop-opacity:0"/>
			<stop  offset="1" style="stop-color:#96FF3B"/>
		</radialGradient>
		<path class="st17" d="M156.9,344.2c-1.4-28.5,12.7-63.2,34-86c50.6-54.3,127.2-79.9,197.8-95.2c76.6-16.6,109.6,10.3,57.1,75.8
			c-47.6,59.3-140,143.4-217.9,153.8C178.4,399.3,158.4,375.4,156.9,344.2z"/>
		<radialGradient id="SVGID_14_" cx="770.147" cy="189.8648" r="247.1848" gradientUnits="userSpaceOnUse">
			<stop  offset="0" style="stop-color:#6AD318;stop-opacity:0"/>
			<stop  offset="1" style="stop-color:#96FF3B"/>
		</radialGradient>
		<path class="st18" d="M656,162.9c13-6,31.7-6,46.2-0.5c34.7,13.2,61,43.8,81.4,73.6c22.1,32.3,15.9,52.7-24.3,40.8
			c-36.5-10.8-92.8-37.7-112.4-71.8C634.6,183.3,641.8,169.5,656,162.9z"/>
		<path class="st3" d="M894.8,86.9c0,0-17.9,6.2-13.2,17.5c4.7,11.4,24.6,6.2,25.5-8.8S894.8,86.9,894.8,86.9z"/>
		<path class="st3" d="M912.2,148.6c-0.5-1.6-1.1-3.1-1.9-4.5c-4.5,18.9-24.7,39.1-41.5,24.8c-6.3-5.4-12.9-14.7-16.3-24.4
			c-3.3,14.4,7.7,33.6,18.1,42.5c19.1,16.3,42.7-12.3,42.4-32.6C913.1,152.4,912.8,150.4,912.2,148.6z"/>
	</g>
</g>
</svg>
