<?xml version="1.0" encoding="utf-8"?>
<!-- Generator: Adobe Illustrator 25.2.1, SVG Export Plug-In . SVG Version: 6.00 Build 0)  -->
<svg version="1.1" id="Warstwa_1" xmlns="http://www.w3.org/2000/svg" xmlns:xlink="http://www.w3.org/1999/xlink" x="0px" y="0px"
	 viewBox="0 0 1000 1000" style="enable-background:new 0 0 1000 1000;" xml:space="preserve">
<style type="text/css">
	.st0{fill:#42FBFA;}
	.st1{fill:url(#SVGID_1_);}
	.st2{fill:url(#SVGID_2_);}
	.st3{fill:#92FFFC;}
	.st4{fill:#FFFFFF;}
	.st5{fill:#0381C1;}
</style>
<g>
	<path class="st0" d="M54.6,813.1C38.8,855,68,910.3,131.7,910.3l594.6,0c39.7,0,78.1-14.4,107.7-40.8
		c41.5-36.9,93.6-97.8,105.3-177.8c21.2-144.2-98.1-467.3-205.8-538.4S241,321.1,54.6,813.1z"/>
	<linearGradient id="SVGID_1_" gradientUnits="userSpaceOnUse" x1="290.6216" y1="808.2263" x2="938.6491" y2="467.8676">
		<stop  offset="0" style="stop-color:#42FBFA"/>
		<stop  offset="1" style="stop-color:#16C1FA"/>
	</linearGradient>
	<path class="st1" d="M787.4,762.3c-70.9,39.7-183.3,64.4-214.5,68.8c-89.2,12.8-181.3,7-268-17.8
		c-62.5-17.9-185.1-64.7-115.9-147.6c55.4-66.3,160.2-104.8,244.4-79.7c58.9,17.5,113.6,39.7,175,49.2c47.8,7.5,96.3,10.3,144.7,8.4
		c27.1-1.1,68.9-4.6,85.8,22.1C862.8,703.6,834,736.2,787.4,762.3z"/>
	<linearGradient id="SVGID_2_" gradientUnits="userSpaceOnUse" x1="404.4715" y1="903.0626" x2="942.892" y2="-110.3217">
		<stop  offset="0" style="stop-color:#42FBFA;stop-opacity:0"/>
		<stop  offset="1" style="stop-color:#2671E5"/>
	</linearGradient>
	<path class="st2" d="M286.5,715.6c3.6-2.7,7.4-5.2,11.1-7.7c67.7-44.7,123.9-105.4,169.2-172.3c46.8-69.2,74.4-148.5,120.8-217.7
		c43.8-65.3,115.9-73.3,169-12.2c50.9,58.5,80.7,148.4,62.9,225.1c-15.3,65.9-70.9,111.1-126,144.6c-78.7,47.9-171.6,80.2-263,91.4
		c-20.9,2.6-191.3,16.4-156.2-38.7C277.5,723.1,281.8,719.1,286.5,715.6z"/>
	<path class="st3" d="M733.6,153.3C625.9,82.1,241,321.1,54.6,813.1c-4.1,10.9-5.2,22.7-3.4,34.2l4.9,0.3
		c0.4-21.2,17.2-41.6,30.5-56.5c61.8-69.1,161.6-91.6,219-164c24.2-30.5,38.9-66.8,50.2-103.7c26.3-86.1,47.3-165.3,114.3-230.3
		C644,124.9,750.1,167.1,752.3,168C746.1,162.4,739.8,157.4,733.6,153.3z"/>
	<path class="st4" d="M596.5,329.4c-3.4-23.2-21.1-50.4-35.5-55.6c-24.6-9-45.2,11.7-41.6,36.5c3.1,20.9,19.9,37.7,38.6,46.1
		c8.1,3.6,19.5,8.3,27.8,3.4C595.8,353.8,598.4,342.2,596.5,329.4z"/>
	<path class="st4" d="M202,762.1c4.9-16.9,1.2-41.1-7.1-49.2c-14-13.8-34.6-6-39.8,12.1c-4.4,15.3,1.9,32,12.1,43.6
		c4.4,5,10.8,11.8,18,11C194,778.6,199.3,771.5,202,762.1z"/>
	<path class="st4" d="M295.1,617.5c-29.8,7.9-62.6,35.4-67.3,55c-8,33.5,22.2,57.3,54.1,48.8c26.9-7.2,46.3-31.8,54.4-57.5
		c3.5-11.2,7.9-26.8,0.2-36.9C327.2,614.7,311.6,613.1,295.1,617.5z"/>
	<g>
		<path class="st5" d="M726.4,917.5H131.7c-31.9,0-58.4-12.9-74.6-36.3c-14.6-21.1-18.1-47.6-9.3-70.7
			c65.4-172.7,161.7-330.2,278.4-455.4c97.3-104.4,204.2-180.7,293.5-209.6c50.7-16.4,91.5-15.8,117.9,1.7
			c51.2,33.9,108.8,125.6,154,245.3c44,116.5,65,231.6,55,300.2c-12,82.1-65.2,144.4-107.7,182.2C808,902.4,768,917.5,726.4,917.5z
			 M61.4,815.7c-7.1,18.7-4.2,40.1,7.7,57.3c13.4,19.4,35.6,30,62.6,30h594.6c38.1,0,74.6-13.8,102.9-39
			c40.7-36.2,91.5-95.7,102.9-173.4c21.4-145.6-99.8-463.4-202.6-531.3c-22.3-14.7-59.8-14.7-105.5,0
			C480.3,205.8,211.7,419,61.4,815.7L61.4,815.7z"/>
	</g>
	<ellipse class="st5" cx="903.9" cy="495" rx="46.2" ry="63.5"/>
	<ellipse class="st4" cx="903.9" cy="468.3" rx="16.5" ry="22.6"/>
	<ellipse class="st5" cx="645.3" cy="495" rx="46.2" ry="63.5"/>
	<ellipse class="st4" cx="645.3" cy="468.3" rx="16.5" ry="22.6"/>
	<g>
		<path class="st5" d="M800.4,606.9c-9.6,0-18.7-3.7-25.6-10.5c-0.2-0.2-0.4-0.2-0.5,0c-6.9,6.8-15.9,10.5-25.6,10.5
			c-20,0-36.4-16.3-36.4-36.4h14.5c0,12,9.8,21.8,21.8,21.8c5.8,0,11.2-2.2,15.4-6.3c5.9-5.8,15.1-5.8,21,0
			c4.1,4.1,9.6,6.3,15.4,6.3c12,0,21.8-9.8,21.8-21.8h14.5C836.8,590.6,820.5,606.9,800.4,606.9z"/>
	</g>
</g>
</svg>
